<svg xmlns="http://www.w3.org/2000/svg" xmlns:xlink="http://www.w3.org/1999/xlink" width="317.485" height="119.643" viewBox="0 0 317.485 119.643" xml:space="preserve"><path fill="#fff" d="M49.774 52.976S40.313 23.444 74.408 1.532c0 0 22.773 19.189-24.634 51.444"/><path fill="#231f20" d="m49.102 54.927-.505-1.575c-.1-.313-2.438-7.799-.506-18.109C49.867 25.77 55.757 12.05 73.74.493L74.507 0l.697.587c.261.219 6.375 5.487 5.879 15.142-.617 11.991-10.917 24.867-30.614 38.269zM74.25 3.109c-27.477 18.146-24.991 41.478-23.7 47.833 12.759-8.894 27.375-21.935 28.064-35.34.344-6.665-2.94-10.958-4.364-12.493"/><path opacity=".1" fill="#231f20" d="M73.751 7.797C50.122 19.898 54.188 39.894 54.188 39.894a100 100 0 0 0 5.658-3.235c-.625-6.943.93-18.284 13.905-28.862"/><path opacity=".1" fill="#231f20" d="M74.161 1.532q-.206.132-.409.266C77.848 8.541 81.735 24.81 48.6 48.18c.356 3.013.927 4.796.927 4.796C96.933 20.721 74.161 1.532 74.161 1.532"/><path fill="#fff" d="M55.103 47.561s8.467-29.832 48.991-29.209c0-.001 8.345 28.585-48.991 29.209"/><path fill="#231f20" d="m53.463 48.813.452-1.59c.088-.311 2.24-7.686 9.376-15.127 6.691-6.976 19.237-15.297 40.823-14.98l.912.014.255.875c.096.327 2.272 8.098-3.485 15.863-7.15 9.646-22.855 14.668-46.678 14.927zm49.385-29.521c-19.874 0-31.464 7.831-37.686 14.281-4.834 5.011-7.283 10.149-8.292 12.653 15.551-.346 34.945-3.224 42.939-14.007 3.974-5.361 3.617-9.927 3.281-12.927z"/><path opacity=".1" fill="#231f20" d="M98.835 22.167c-29.499-.208-35.687 21.575-35.687 21.575 2.359-.026 4.565-.116 6.633-.262 2.91-7.125 10.333-17.772 29.054-21.313"/><g fill="#231f20"><path d="M46.319 34.184q-.137 0-.274-.035a1.11 1.11 0 0 1-.804-1.351c2.786-10.976 5.106-27.247 1.541-29.057-.884-.45-3.781-.47-11.61 8.991a1.113 1.113 0 0 1-1.713-1.418C40.152 3.227 44.707.193 47.79 1.758c6.432 3.268.801 26.886-.394 31.588-.128.503-.58.838-1.077.838"/><ellipse transform="rotate(41.53 36.133 11.978)" cx="36.132" cy="11.977" rx="2.508" ry="6.399"/></g><path opacity=".1" fill="#231f20" d="M104.094 18.351a78 78 0 0 0-2.556.006c.294 7.104-3.285 24.605-45.245 26.14-.854 1.883-1.19 3.063-1.19 3.063 57.336-.623 48.991-29.209 48.991-29.209"/><defs><path id="a" d="M77.354 117.083c-.661-2.828-1.312-5.646-.229-8.272 2.134-5.171 6.049-9.252 9.266-12.506 8.185-8.281 15.607-23.537 9.335-41.616-3.038-8.757-9.685-17.008-18.575-22.056-9.465-5.374-21.448-7.145-33.479-2.905-10.754 3.789-18.379 10.375-23.036 18.423-5.446 9.415-6.714 20.906-2.377 33.411 3.196 9.212 8.711 16.244 15.832 20.617 14.04 8.624 22.366 6.926 28.395 8.051 4.314.805 8.894 3.27 14.868 6.853"/></defs><clipPath id="b"><use xlink:href="#a" overflow="visible"/></clipPath><g clip-path="url(#b)" fill-rule="evenodd" clip-rule="evenodd"><path fill="#231f20" d="M169.405 85.221c17.627 50.813-9.29 106.292-60.114 123.922-50.822 17.631-106.315-9.259-123.942-60.072C-32.28 98.26-5.361 42.779 45.461 25.149c50.825-17.631 106.316 9.259 123.944 60.072"/><path fill="#faba37" d="M136.18 96.746c11.089 31.968-6.251 67.01-38.727 78.277-32.474 11.265-67.792-5.511-78.881-37.478-11.09-31.967 6.251-67.009 38.726-78.276 32.475-11.265 67.792 5.511 78.882 37.477"/><ellipse transform="rotate(-19.129 77.39 117.16)" fill="#231f20" cx="77.376" cy="117.146" rx="51.05" ry="51.032"/><ellipse transform="rotate(-19.129 77.391 117.163)" fill="#faba37" cx="77.376" cy="117.146" rx="42.248" ry="41.582"/><ellipse transform="rotate(-19.134 77.367 117.135)" fill="#231f20" cx="77.376" cy="117.146" rx="33.447" ry="32.132"/><ellipse transform="rotate(-19.129 77.39 117.16)" fill="#faba37" cx="77.376" cy="117.146" rx="24.645" ry="22.681"/><ellipse transform="rotate(-19.129 77.39 117.16)" fill="#231f20" cx="77.376" cy="117.146" rx="15.843" ry="13.231"/></g><g fill="#231f20"><path d="M33.959 37.831c-.411 0-.806-.043-.999-.437-.09-.184-9.1-18.103-18.57-18.103h-.125c-4.197 0-8.013 3.67-11.342 11.062-.251.56-.91.717-1.47.464s-.81-.956-.558-1.516c3.713-8.247 8.2-12.496 13.333-12.581.052-.001.105-.013.157-.013 10.855 0 20.177 18.725 20.57 19.525a1.108 1.108 0 0 1-.996 1.599"/><ellipse transform="rotate(26.506 3.268 29.03)" cx="3.269" cy="29.026" rx="2.257" ry="5.758"/></g><defs><path id="c" d="M63.665 77.86c-22.042 7.647-33.814 31.434-26.287 53.132s31.501 33.087 53.544 25.438c22.043-7.646 33.813-31.433 26.286-53.132-7.527-21.697-31.5-33.085-53.543-25.438m24.16 69.643c-17.45 6.054-36.313-2.629-42.13-19.396-5.816-16.767 3.617-35.265 21.068-41.319 17.452-6.054 36.313 2.628 42.131 19.395 5.815 16.768-3.619 35.266-21.069 41.32M69.859 95.717c-12.858 4.461-19.956 17.67-15.849 29.506 4.105 11.836 17.859 17.812 30.717 13.352s19.956-17.67 15.85-29.506-17.858-17.812-30.718-13.352m11.77 33.929c-8.266 2.868-16.909-.403-19.304-7.308-2.396-6.903 2.365-14.825 10.631-17.692s16.91.404 19.305 7.308-2.365 14.824-10.632 17.692M57.216 59.27C24.742 70.536 7.4 105.579 18.49 137.545c11.089 31.967 46.407 48.742 78.881 37.478 32.475-11.267 49.815-46.309 38.726-78.277-11.09-31.966-46.406-48.742-78.881-37.476M94.02 165.36c-26.635 9.24-55.718-4.852-64.957-31.482s4.87-55.705 31.504-64.945c26.636-9.241 55.718 4.853 64.957 31.483 9.238 26.628-4.869 55.704-31.504 64.944"/></defs><clipPath id="d"><use xlink:href="#c" overflow="visible"/></clipPath><path opacity=".2" clip-path="url(#d)" fill-rule="evenodd" clip-rule="evenodd" fill="#231f20" d="M77.082 108.811c.302-.73.643-1.438 1.008-2.126-1.673-.694-3.261-1.202-4.812-1.491-6.029-1.125-14.354.573-28.395-8.052-7.12-4.374-12.636-11.404-15.831-20.616-4.338-12.504-3.069-23.997 2.376-33.412 3.113-5.379 7.553-10.104 13.365-13.778q-.582.187-1.164.392C32.875 33.517 25.25 40.103 20.593 48.151c-5.446 9.415-6.714 20.906-2.377 33.411 3.196 9.212 8.711 16.244 15.832 20.617 14.041 8.624 22.366 6.926 28.395 8.051 4.314.805 8.893 3.271 14.868 6.853-.66-2.828-1.311-5.646-.229-8.272"/><path fill="#231f20" d="m79.221 119.643-2.501-1.5c-6.134-3.678-10.466-5.953-14.46-6.699-1.328-.248-2.781-.353-4.464-.472-5.615-.403-13.306-.957-24.351-7.74-7.462-4.583-13.117-11.936-16.352-21.265-4.278-12.333-3.422-24.24 2.475-34.435 5.05-8.728 13.244-15.288 23.694-18.97 4.58-1.613 9.302-2.432 14.036-2.432 7.134 0 14.21 1.877 20.464 5.428 8.903 5.054 15.875 13.337 19.132 22.726 6.276 18.091-.856 34.017-9.624 42.888-2.739 2.772-6.878 6.958-9.002 12.11-.936 2.269-.341 4.819.29 7.52zM57.297 28.602c-4.454 0-8.9.771-13.214 2.292-9.889 3.483-17.626 9.665-22.377 17.876-5.526 9.554-6.314 20.753-2.279 32.388 3.046 8.782 8.341 15.687 15.31 19.968 10.532 6.47 17.576 6.975 23.236 7.381 1.684.122 3.275.234 4.74.508 3.784.708 7.708 2.588 12.848 5.573-.356-2.076-.431-4.175.422-6.247 2.311-5.601 6.655-9.996 9.53-12.904 8.245-8.343 14.952-23.322 9.047-40.343-3.062-8.829-9.63-16.624-18.018-21.386-5.883-3.34-12.538-5.106-19.245-5.106"/><path fill="#fff" d="M60.468 34.843c4.192 5.736 2.869 15.045-3.778 20.149-8.467 6.471-20.763 2.38-25.006 5.679-3.586 2.807-5.219 15.195-8.641 17.766-3.641 2.734-7.506-.288-9.201-2.544-1.695-2.259-4.029-6.884-4.197-10.746-.165-3.862.217-5.629 2.365-7.014 2.786-1.75 14.155 2.469 17.614.099 4.334-3.026 6.784-18.875 13.994-24.29 4.37-3.281 6.173-3.609 8.341-3.757 3.332-.11 6.174 1.4 8.509 4.658"/><path fill="#231f20" d="M52.297 30.18c3.187 0 5.916 1.516 8.17 4.664 4.192 5.736 2.869 15.045-3.778 20.149-8.467 6.471-20.763 2.38-25.006 5.679-3.586 2.807-5.219 15.195-8.641 17.766-1.03.773-2.078 1.086-3.089 1.086-2.565 0-4.896-2.011-6.112-3.63-1.695-2.259-4.029-6.884-4.197-10.746-.165-3.862.217-5.629 2.365-7.014.504-.317 1.291-.438 2.261-.438 3.15 0 8.239 1.28 11.904 1.28 1.436 0 2.652-.196 3.449-.743 4.334-3.026 6.784-18.875 13.994-24.29 4.37-3.281 6.173-3.609 8.341-3.757a10 10 0 0 1 .339-.006m.001-2.472q-.21 0-.421.007l-.043.002-.043.003c-2.918.199-5.213.911-9.657 4.247-4.584 3.442-7.25 10.043-9.604 15.866-1.413 3.497-3.014 7.461-4.321 8.374-.028.019-.479.297-2.035.297-1.717 0-3.903-.33-6.017-.648-2.153-.324-4.186-.631-5.887-.631-1.552 0-2.688.259-3.575.817-3.522 2.271-3.677 5.515-3.519 9.212.214 4.934 3.161 10.087 4.689 12.123 1.677 2.233 4.682 4.618 8.088 4.618 1.636 0 3.175-.532 4.572-1.58 2.307-1.734 3.594-5.51 5.083-9.883 1-2.934 2.369-6.952 3.597-7.914 1.125-.874 4.207-.963 7.188-1.05 5.447-.157 12.225-.354 17.796-4.611 7.466-5.734 9.421-16.526 4.272-23.571-2.692-3.761-6.116-5.678-10.163-5.678"/><path fill="#faba37" d="M139.126 44.067h-2.178l-8.583-13.302h-.156l-.026 7.831.078 5.471h-1.945l.129-4.926-.078-11.696h2.178l8.557 13.304h.182l-.026-13.199 1.971-.156-.156 11.799zm16.168-14.677q1.828 2.1 1.828 6.042 0 4.227-1.944 6.535-1.946 2.308-5.523 2.308-3.372 0-5.213-2.179-1.84-2.178-1.841-6.197 0-4.149 1.932-6.379 1.93-2.23 5.537-2.23 3.397 0 5.224 2.1m-10.566 6.25q0 6.898 5.057 6.897 5.186 0 5.186-6.742 0-3.449-1.257-5.122-1.259-1.672-3.825-1.672-5.162 0-5.161 6.639m26.838 7.935-.026.259a7.4 7.4 0 0 1-1.919.467l-.285-.182a90 90 0 0 1-3.811-6.223h-3.035v.985l.104 5.186h-2.1l.129-5.005-.129-11.617 5.082-.025q2.437 0 3.773 1.232t1.336 3.514q0 1.71-.895 3.073-.895 1.361-2.529 2.113 1.712 2.825 4.305 6.223m-5.938-7.365q2.904-.83 2.904-3.863 0-3.086-3.424-3.216l-2.515.077-.078 6.924zm17.893-6.949-2.904-.156h-1.686l-.078 9.776.078 5.186h-2.101l.155-5.005-.13-9.957h-1.685l-2.957.156-.129-.208.155-1.608h11.28l.156.208zm15.974 14.806h-2.101l.155-5.005-.025-2.489-4.668-.078-4.201.078-.026 2.309.103 5.186h-2.1l.13-5.005-.13-11.617h2.127l-.079 7.313 4.358.078 4.459-.078-.104-7.313h2.126l-.104 11.437zm21.548 0-3.242-9.646h-.182l-3.423 9.646h-2.152l-5.29-16.622h2.075l.286 1.608 4.044 12.707h.182l3.579-10.113-1.401-4.202h2.126l.389 1.79 4.098 12.525h.156l4.511-12.603.39-1.712h1.97l-5.963 16.622zm20.071 0h-9.336l.13-5.005-.13-11.617h9.361l.104.208-.156 1.608-3.916-.078-3.293.051-.052 5.446 3.112.052 2.748-.078.156.182-.181 1.608-2.904-.052-2.957.025-.025 2.464.077 3.449 3.293.026 3.994-.104.129.207zm11.383-15.974-.337 1.997-.363.104q-1.555-1.193-3.268-1.193-.959 0-1.672.389a2.8 2.8 0 0 0-1.09 1.012q-.375.622-.375 1.296 0 .7.428 1.231t1.077.92q.648.389 1.763.934 1.401.648 2.256 1.206a5.4 5.4 0 0 1 1.465 1.413q.61.855.61 2.074a4.3 4.3 0 0 1-.701 2.385q-.7 1.09-1.971 1.738-1.271.649-2.904.648a8.95 8.95 0 0 1-4.46-1.167l.259-2.126.286-.129a6 6 0 0 0 2.009 1.309q1.101.429 2.113.428.986 0 1.75-.39.764-.388 1.167-1.037.401-.648.401-1.374 0-1.09-.829-1.751-.83-.662-2.516-1.439-1.375-.673-2.204-1.206-.83-.53-1.426-1.374c-.596-.844-.597-1.25-.597-2.062q0-1.27.688-2.334.687-1.062 1.919-1.672t2.813-.609q1.79.002 3.709.779m13.173 1.168-2.905-.156h-1.686l-.077 9.776.077 5.186h-2.1l.157-5.005-.13-9.957h-1.685l-2.958.156-.13-.208.156-1.608h11.281l.155.208z"/><path fill="#fff" d="M142.227 54.912q2.453 2.485 2.453 7.166 0 5.548-2.854 8.528-2.853 2.982-8.176 2.981-3.334 0-7.822-.288l.321-6.092-.321-14.651 9.362-.128q4.586 0 7.037 2.484m-5.065 12.696q.786-1.203.786-3.96 0-2.34-.321-3.686t-1.025-1.94q-.706-.593-1.956-.593-1.22 0-2.404.128l-.224 9.009.063 1.988q1.924.256 2.79.256 1.505.001 2.291-1.202m28.261 4.184-.096.705q-3.271.995-6.445 1.187l-.609-.513q-2.053-4.392-2.757-6.059h-2.148l.225 6.188h-6.444l.32-6.092-.32-14.651 9.843-.032q3.495 0 5.386 1.651t1.892 4.761a6.8 6.8 0 0 1-.914 3.431q-.914 1.604-2.549 2.757a112 112 0 0 0 4.616 6.667m-8.576-14.123q-.657-.624-2.132-.689l-1.154.096-.128 5.354 2.34.129q.898-.417 1.315-1.122t.417-1.86q-.001-1.282-.658-1.908m27.492 8.705q-.033 3.526-2.373 5.418-2.341 1.891-6.701 1.891-4.2 0-6.428-1.891t-2.131-5.418l.097-3.303-.193-10.516h6.445l-.289 12.952q-.032 1.635.625 2.373.658.737 2.133.737 1.506 0 2.18-.737.674-.738.641-2.373l-.289-12.952h6.541l-.225 10.516zm18.868-12.135q1.875 1.715 1.875 4.889 0 2.469-1.154 4.345-1.155 1.875-3.27 2.917-2.117 1.041-4.874 1.042h-1.571l.224 5.867h-6.444l.32-6.092-.32-14.651 9.842-.032q3.495-.001 5.372 1.715m-5.258 7.47q.4-.753.4-1.94 0-1.41-.674-2.068-.672-.657-2.116-.721l-1.154.096-.129 5.739 2.405.129q.866-.482 1.268-1.235m18.482 11.59-.577-3.431-.032-.097-3.143-.064-2.628.128-.545 3.463h-6.284l6.284-20.744h7.759l5.675 20.744zm-2.982-15.005h-.384l-1.796 6.797 1.796.032 1.795-.032zm23.918 15.005h-12.344l.32-6.092-.32-14.651h6.541l-.353 14.011.064 1.475h6.123l.354.449zm23.916-6.925q-.032 3.526-2.373 5.418-2.34 1.891-6.701 1.891-4.2 0-6.428-1.891t-2.133-5.418l.097-3.303-.192-10.516h6.445l-.289 12.952q-.031 1.635.625 2.373.657.737 2.132.737 1.507 0 2.181-.737.673-.738.641-2.373L255 52.556h6.54l-.224 10.516zm17.537-13.081-1.025 5.226-.899.384a14.5 14.5 0 0 0-2.66-1.314q-1.317-.48-2.116-.48-.738 0-1.17.288-.432.289-.432.77 0 .609.656 1.042.657.433 2.197 1.139 1.795.801 2.95 1.49 1.154.691 2.019 1.892.864 1.202.864 2.966a6.2 6.2 0 0 1-1.073 3.542q-1.074 1.588-3.062 2.517-1.989.93-4.617.93-3.268 0-6.861-1.218l.93-5.578.641-.385a13 13 0 0 0 3.159 1.778q1.683.658 2.806.658 1.698 0 1.699-1.058 0-.673-.689-1.139-.69-.464-2.228-1.138-1.764-.77-2.902-1.459t-1.971-1.891q-.836-1.203-.834-2.966 0-2.02 1.091-3.639 1.089-1.619 3.045-2.549t4.456-.93q3.044 0 6.026 1.122m18.051 15.325-.386 4.681h-14.619l.321-6.092-.321-14.651h14.876l.353.449-.417 4.68-5.097-.192h-3.303l-.063 2.917h3.174l3.335-.096.352.449-.385 4.681-3.719-.095h-2.885l-.032 1.218.063 1.794h3.077l5.322-.191zm20.614 3.174-.097.705q-3.27.995-6.444 1.187l-.609-.513q-2.051-4.392-2.757-6.059h-2.147l.224 6.188h-6.444l.321-6.092-.321-14.651 9.843-.032q3.495 0 5.386 1.651 1.893 1.652 1.893 4.761a6.83 6.83 0 0 1-.913 3.431q-.914 1.604-2.55 2.757a112 112 0 0 0 4.615 6.667m-8.576-14.123q-.657-.624-2.132-.689l-1.154.096-.129 5.354 2.341.129q.897-.417 1.315-1.122.415-.705.416-1.86 0-1.282-.657-1.908M142.147 82.396l-1.378 5.675h-.514q-1.603-.802-2.773-1.154a8.8 8.8 0 0 0-2.548-.353q-1.476 0-2.26.481-.786.481-1.139 1.7t-.353 3.526q0 2.341.353 3.575.353 1.235 1.202 1.731.849.497 2.453.497a7 7 0 0 0 1.154-.127v-1.026l-.096-3.494 5.867-.417-.096 2.821v5.675q-3.72 1.41-7.406 1.41-5.034 0-7.598-2.677t-2.565-7.646q0-5.45 3.03-8.304t8.672-2.854q3.462 0 5.995.961m21.064 18.627-.097.706q-3.27.995-6.444 1.186l-.609-.513q-2.052-4.392-2.757-6.06h-2.148l.225 6.188h-6.444l.321-6.091-.321-14.651 9.843-.032q3.494 0 5.385 1.651 1.892 1.651 1.893 4.761a6.8 6.8 0 0 1-.913 3.43q-.914 1.603-2.55 2.757a112 112 0 0 0 4.616 6.668m-8.577-14.122q-.657-.625-2.132-.689l-1.154.097-.128 5.354 2.34.128q.899-.416 1.314-1.122.417-.705.417-1.86 0-1.283-.657-1.908m26.21-2.821q2.468 2.677 2.468 7.55 0 5.386-2.709 8.335t-7.679 2.95q-4.52 0-6.988-2.709-2.47-2.708-2.47-7.678 0-5.321 2.709-8.223c2.709-2.902 4.365-2.901 7.678-2.901q4.522-.002 6.991 2.676m-9.458 2.885q-.641.433-.914 1.522-.272 1.09-.272 3.174 0 2.661.289 4.04.288 1.379.977 1.924t2.037.545q1.25 0 1.891-.434.64-.431.914-1.539.272-1.106.272-3.189 0-2.629-.288-4.008-.29-1.378-.978-1.924-.69-.545-2.036-.545-1.251.001-1.892.434m31.676 8.639q-.031 3.53-2.373 5.418-2.34 1.893-6.7 1.892-4.2 0-6.428-1.892-2.23-1.888-2.132-5.418l.096-3.301-.192-10.516h6.444l-.289 12.953q-.032 1.634.625 2.372t2.132.737q1.506 0 2.18-.737t.642-2.372l-.288-12.953h6.54l-.224 10.516zm18.867-12.134q1.875 1.716 1.875 4.889 0 2.469-1.154 4.345t-3.27 2.917q-2.115 1.042-4.873 1.042h-1.57l.224 5.867h-6.445l.321-6.091-.321-14.651 9.843-.032q3.494-.001 5.37 1.714m-5.258 7.47q.4-.753.401-1.939 0-1.41-.673-2.068-.673-.657-2.116-.722l-1.154.097-.129 5.739 2.405.127q.865-.48 1.266-1.234"/><g opacity=".1"><defs><path id="e" opacity=".1" d="M60.468 34.843c4.192 5.736 2.869 15.045-3.778 20.149-8.467 6.471-20.763 2.38-25.006 5.679-3.586 2.807-5.219 15.195-8.641 17.766-3.641 2.734-7.506-.288-9.201-2.544-1.695-2.259-4.029-6.884-4.197-10.746-.165-3.862.217-5.629 2.365-7.014 2.786-1.75 14.155 2.469 17.614.099 4.334-3.026 6.784-18.875 13.994-24.29 4.37-3.281 6.173-3.609 8.341-3.757 3.332-.11 6.174 1.4 8.509 4.658"/></defs><clipPath id="f"><use xlink:href="#e" overflow="visible"/></clipPath><g clip-path="url(#f)" fill="#231f20"><path d="M60.665 34.822c-2.334-3.259-5.177-4.769-8.509-4.657-.645.043-1.258.105-1.916.254 3.136.037 5.826 1.55 8.054 4.66 4.193 5.736 2.869 15.045-3.778 20.15-2.872 2.194-6.185 3.171-9.474 3.637 4.036-.319 8.279-1.17 11.845-3.895 6.647-5.104 7.971-14.413 3.778-20.149M26.346 58.951c-4.557-.007-11.288-1.97-13.781-1.01 3.968.139 10.456 1.919 13.781 1.01m3.164 1.956c-3.587 2.807-5.219 15.194-8.641 17.766a5.6 5.6 0 0 1-1.41.781c1.22.167 2.514-.087 3.78-1.037 3.423-2.572 5.055-14.959 8.642-17.766.791-.616 1.863-.973 3.137-1.191-2.327.149-4.264.48-5.508 1.447"/></g></g></svg>